<?xml version="1.0" standalone="no"?>
<!DOCTYPE svg PUBLIC "-//W3C//DTD SVG 1.1//EN" "http://www.w3.org/Graphics/SVG/1.1/DTD/svg11.dtd">
<svg width="536" height="150" version="1.1" xmlns="http://www.w3.org/2000/svg">
	<desc>WIL2094472477</desc>
	<g id="bars" fill="black" stroke="none">
		<rect x="0" y="0" width="8" height="150" />
		<rect x="12" y="0" width="4" height="150" />
		<rect x="24" y="0" width="4" height="150" />
		<rect x="44" y="0" width="12" height="150" />
		<rect x="60" y="0" width="4" height="150" />
		<rect x="76" y="0" width="8" height="150" />
		<rect x="88" y="0" width="8" height="150" />
		<rect x="108" y="0" width="4" height="150" />
		<rect x="124" y="0" width="4" height="150" />
		<rect x="132" y="0" width="4" height="150" />
		<rect x="148" y="0" width="8" height="150" />
		<rect x="160" y="0" width="12" height="150" />
		<rect x="176" y="0" width="4" height="150" />
		<rect x="184" y="0" width="12" height="150" />
		<rect x="200" y="0" width="16" height="150" />
		<rect x="220" y="0" width="8" height="150" />
		<rect x="236" y="0" width="4" height="150" />
		<rect x="248" y="0" width="12" height="150" />
		<rect x="264" y="0" width="4" height="150" />
		<rect x="280" y="0" width="4" height="150" />
		<rect x="288" y="0" width="16" height="150" />
		<rect x="308" y="0" width="4" height="150" />
		<rect x="324" y="0" width="12" height="150" />
		<rect x="340" y="0" width="8" height="150" />
		<rect x="352" y="0" width="12" height="150" />
		<rect x="368" y="0" width="4" height="150" />
		<rect x="380" y="0" width="8" height="150" />
		<rect x="396" y="0" width="16" height="150" />
		<rect x="416" y="0" width="12" height="150" />
		<rect x="432" y="0" width="4" height="150" />
		<rect x="440" y="0" width="4" height="150" />
		<rect x="452" y="0" width="8" height="150" />
		<rect x="476" y="0" width="4" height="150" />
		<rect x="484" y="0" width="8" height="150" />
		<rect x="504" y="0" width="12" height="150" />
		<rect x="520" y="0" width="4" height="150" />
		<rect x="528" y="0" width="8" height="150" />
		<rect x="536" y="0" width="0" height="150" />
		<rect x="536" y="0" width="0" height="150" />
	</g>
</svg>
