<?xml version="1.0" standalone="no"?>
<!DOCTYPE svg PUBLIC "-//W3C//DTD SVG 1.1//EN" "http://www.w3.org/Graphics/SVG/1.1/DTD/svg11.dtd">
<svg width="492" height="150" version="1.1" xmlns="http://www.w3.org/2000/svg">
	<desc>IN3604198452</desc>
	<g id="bars" fill="black" stroke="none">
		<rect x="0" y="0" width="8" height="150" />
		<rect x="12" y="0" width="4" height="150" />
		<rect x="24" y="0" width="4" height="150" />
		<rect x="44" y="0" width="8" height="150" />
		<rect x="64" y="0" width="4" height="150" />
		<rect x="80" y="0" width="4" height="150" />
		<rect x="88" y="0" width="4" height="150" />
		<rect x="96" y="0" width="12" height="150" />
		<rect x="120" y="0" width="8" height="150" />
		<rect x="132" y="0" width="4" height="150" />
		<rect x="140" y="0" width="12" height="150" />
		<rect x="156" y="0" width="16" height="150" />
		<rect x="176" y="0" width="4" height="150" />
		<rect x="184" y="0" width="8" height="150" />
		<rect x="204" y="0" width="4" height="150" />
		<rect x="220" y="0" width="4" height="150" />
		<rect x="232" y="0" width="4" height="150" />
		<rect x="248" y="0" width="8" height="150" />
		<rect x="264" y="0" width="8" height="150" />
		<rect x="280" y="0" width="4" height="150" />
		<rect x="288" y="0" width="12" height="150" />
		<rect x="308" y="0" width="4" height="150" />
		<rect x="320" y="0" width="16" height="150" />
		<rect x="340" y="0" width="4" height="150" />
		<rect x="352" y="0" width="8" height="150" />
		<rect x="364" y="0" width="12" height="150" />
		<rect x="388" y="0" width="4" height="150" />
		<rect x="396" y="0" width="4" height="150" />
		<rect x="408" y="0" width="4" height="150" />
		<rect x="416" y="0" width="8" height="150" />
		<rect x="440" y="0" width="8" height="150" />
		<rect x="460" y="0" width="12" height="150" />
		<rect x="476" y="0" width="4" height="150" />
		<rect x="484" y="0" width="8" height="150" />
		<rect x="492" y="0" width="0" height="150" />
		<rect x="492" y="0" width="0" height="150" />
	</g>
</svg>
