<?xml version="1.0" standalone="no"?>
<!DOCTYPE svg PUBLIC "-//W3C//DTD SVG 1.1//EN" "http://www.w3.org/Graphics/SVG/1.1/DTD/svg11.dtd">
<svg width="536" height="150" version="1.1" xmlns="http://www.w3.org/2000/svg">
	<desc>AWB1743307578</desc>
	<g id="bars" fill="black" stroke="none">
		<rect x="0" y="0" width="8" height="150" />
		<rect x="12" y="0" width="4" height="150" />
		<rect x="24" y="0" width="4" height="150" />
		<rect x="44" y="0" width="4" height="150" />
		<rect x="52" y="0" width="4" height="150" />
		<rect x="68" y="0" width="8" height="150" />
		<rect x="88" y="0" width="12" height="150" />
		<rect x="104" y="0" width="4" height="150" />
		<rect x="120" y="0" width="8" height="150" />
		<rect x="132" y="0" width="4" height="150" />
		<rect x="148" y="0" width="4" height="150" />
		<rect x="156" y="0" width="8" height="150" />
		<rect x="176" y="0" width="4" height="150" />
		<rect x="184" y="0" width="12" height="150" />
		<rect x="200" y="0" width="16" height="150" />
		<rect x="220" y="0" width="4" height="150" />
		<rect x="232" y="0" width="12" height="150" />
		<rect x="252" y="0" width="8" height="150" />
		<rect x="264" y="0" width="4" height="150" />
		<rect x="272" y="0" width="8" height="150" />
		<rect x="292" y="0" width="12" height="150" />
		<rect x="308" y="0" width="8" height="150" />
		<rect x="320" y="0" width="8" height="150" />
		<rect x="332" y="0" width="8" height="150" />
		<rect x="352" y="0" width="8" height="150" />
		<rect x="376" y="0" width="4" height="150" />
		<rect x="388" y="0" width="4" height="150" />
		<rect x="396" y="0" width="8" height="150" />
		<rect x="420" y="0" width="4" height="150" />
		<rect x="428" y="0" width="4" height="150" />
		<rect x="440" y="0" width="12" height="150" />
		<rect x="460" y="0" width="4" height="150" />
		<rect x="468" y="0" width="8" height="150" />
		<rect x="484" y="0" width="8" height="150" />
		<rect x="504" y="0" width="12" height="150" />
		<rect x="520" y="0" width="4" height="150" />
		<rect x="528" y="0" width="8" height="150" />
		<rect x="536" y="0" width="0" height="150" />
		<rect x="536" y="0" width="0" height="150" />
	</g>
</svg>
